<svg width="64" height="64" viewBox="0 0 64 64" fill="none" xmlns="http://www.w3.org/2000/svg">
  <defs>
    <linearGradient id="arcticGradient" x1="0%" y1="0%" x2="100%" y2="100%">
      <stop offset="0%" style="stop-color:#66ccff;stop-opacity:1" />
      <stop offset="50%" style="stop-color:#0099ff;stop-opacity:1" />
      <stop offset="100%" style="stop-color:#003366;stop-opacity:1" />
    </linearGradient>
  </defs>
  <circle cx="32" cy="32" r="30" fill="url(#arcticGradient)" stroke="#ffffff" stroke-width="2"/>
  <ellipse cx="32" cy="28" rx="16" ry="12" fill="#ffffff" opacity="0.9"/>
  <path d="M20 20 L24 16 L28 20 L32 18 L36 20 L40 16 L44 20 L40 24 L36 22 L32 24 L28 22 L24 24 Z" fill="#ffffff" opacity="0.8"/>
  <circle cx="28" cy="26" r="2" fill="#003366"/>
  <circle cx="36" cy="26" r="2" fill="#003366"/>
  <ellipse cx="32" cy="30" rx="3" ry="1.5" fill="#333333"/>
  <path d="M26 32 Q32 34 38 32" stroke="#333333" stroke-width="1" fill="none"/>
  <path d="M18 36 Q22 40 26 36" stroke="#ffffff" stroke-width="2" fill="none"/>
  <path d="M38 36 Q42 40 46 36" stroke="#ffffff" stroke-width="2" fill="none"/>
  <path d="M28 44 L32 48 L36 44" stroke="#ffffff" stroke-width="2" fill="none"/>
</svg>
