<svg width="64" height="64" viewBox="0 0 64 64" fill="none" xmlns="http://www.w3.org/2000/svg">
  <defs>
    <linearGradient id="phoenixGradient" x1="0%" y1="0%" x2="100%" y2="100%">
      <stop offset="0%" style="stop-color:#ff4400;stop-opacity:1" />
      <stop offset="50%" style="stop-color:#ff6600;stop-opacity:1" />
      <stop offset="100%" style="stop-color:#ffaa00;stop-opacity:1" />
    </linearGradient>
  </defs>
  <circle cx="32" cy="32" r="30" fill="url(#phoenixGradient)" stroke="#ffffff" stroke-width="2"/>
  <path d="M32 12 C28 16, 24 20, 20 28 C24 24, 28 20, 32 24 C36 20, 40 24, 44 28 C40 20, 36 16, 32 12 Z" fill="#ffffff" opacity="0.9"/>
  <ellipse cx="32" cy="36" rx="12" ry="8" fill="#ffffff" opacity="0.8"/>
  <path d="M20 40 C24 44, 28 48, 32 52 C36 48, 40 44, 44 40" stroke="#ffffff" stroke-width="2" fill="none"/>
  <circle cx="28" cy="28" r="1.5" fill="#ff0000"/>
  <circle cx="36" cy="28" r="1.5" fill="#ff0000"/>
  <path d="M16 32 Q20 28 24 32" stroke="#ffffff" stroke-width="2" fill="none" opacity="0.7"/>
  <path d="M40 32 Q44 28 48 32" stroke="#ffffff" stroke-width="2" fill="none" opacity="0.7"/>
</svg>
